<svg xmlns="http://www.w3.org/2000/svg" width="30" height="30" viewBox="0 0 30 30">
  <g id="light" transform="translate(0.017)">
    <rect id="bg" width="30" height="30" rx="15" transform="translate(-0.017)" fill="#fb9426"/>
    <path id="icon" d="M8,4.818A3.182,3.182,0,1,0,11.182,8,3.183,3.183,0,0,0,8,4.818ZM1.636,8.636H2.909a.636.636,0,0,0,0-1.273H1.636a.636.636,0,1,0,0,1.273Zm11.455,0h1.273a.636.636,0,1,0,0-1.273H13.091a.636.636,0,0,0,0,1.273Zm-5.727-7V2.909a.636.636,0,0,0,1.273,0V1.636a.636.636,0,1,0-1.273,0Zm0,11.455v1.273a.636.636,0,1,0,1.273,0V13.091a.636.636,0,0,0-1.273,0ZM4.175,3.278a.634.634,0,0,0-.9.9l.675.675a.634.634,0,1,0,.9-.9Zm7.872,7.872a.634.634,0,1,0-.9.9l.675.675a.634.634,0,0,0,.9-.9Zm.675-6.975a.634.634,0,0,0-.9-.9l-.675.675a.634.634,0,1,0,.9.9ZM4.85,12.047a.634.634,0,1,0-.9-.9l-.675.675a.634.634,0,0,0,.9.9Z" transform="translate(6.983 7)" fill="#fff"/>
  </g>
</svg>
